<?xml version="1.0" encoding="utf-8"?>
<!-- Generator: Adobe Illustrator 16.0.0, SVG Export Plug-In . SVG Version: 6.00 Build 0)  -->
<!DOCTYPE svg PUBLIC "-//W3C//DTD SVG 1.1//EN" "http://www.w3.org/Graphics/SVG/1.1/DTD/svg11.dtd">
<svg version="1.1" id="Calque_1" xmlns="http://www.w3.org/2000/svg" xmlns:xlink="http://www.w3.org/1999/xlink" x="0px" y="0px"
	 width="181px" height="52px" viewBox="0 0 181 52" enable-background="new 0 0 181 52" xml:space="preserve">
<g>
	<path fill="#388F43" d="M17.04,20.64h-4.77V36.7H6.76V20.64H3.72v-2.66l3.04-1.48v-1.48c0-2.3,0.57-3.98,1.7-5.04
		c1.13-1.06,2.94-1.59,5.44-1.59c1.9,0,3.6,0.28,5.08,0.85l-1.41,4.05c-1.11-0.35-2.13-0.52-3.07-0.52c-0.78,0-1.35,0.23-1.7,0.7
		c-0.35,0.46-0.52,1.06-0.52,1.78v1.26h4.77V20.64z"/>
	<path fill="#388F43" d="M31.47,16.12c0.75,0,1.37,0.05,1.86,0.16l-0.42,5.17c-0.45-0.12-0.99-0.18-1.63-0.18
		c-1.76,0-3.13,0.45-4.11,1.35c-0.98,0.9-1.47,2.17-1.47,3.79V36.7H20.2V16.5h4.17l0.81,3.4h0.27c0.63-1.13,1.47-2.04,2.54-2.74
		C29.06,16.47,30.22,16.12,31.47,16.12z"/>
	<path fill="#388F43" d="M55.36,26.56c0,3.29-0.87,5.86-2.6,7.71c-1.73,1.85-4.15,2.78-7.24,2.78c-1.94,0-3.65-0.42-5.13-1.27
		c-1.48-0.85-2.62-2.07-3.41-3.66s-1.19-3.44-1.19-5.56c0-3.3,0.86-5.87,2.58-7.7c1.72-1.83,4.14-2.75,7.26-2.75
		c1.94,0,3.65,0.42,5.13,1.26c1.48,0.84,2.62,2.05,3.41,3.63C54.96,22.59,55.36,24.44,55.36,26.56z M41.39,26.56
		c0,2,0.33,3.51,0.98,4.53c0.66,1.02,1.73,1.54,3.21,1.54c1.47,0,2.53-0.51,3.17-1.53c0.64-1.02,0.97-2.53,0.97-4.54
		c0-2-0.33-3.5-0.98-4.5c-0.65-1-1.72-1.5-3.2-1.5c-1.47,0-2.53,0.5-3.18,1.49C41.72,23.05,41.39,24.55,41.39,26.56z"/>
	<path fill="#388F43" d="M77.49,16.5v2.8l-3.16,0.81c0.58,0.9,0.87,1.92,0.87,3.04c0,2.17-0.76,3.86-2.27,5.07
		c-1.51,1.21-3.61,1.82-6.3,1.82l-0.99-0.05l-0.81-0.09c-0.57,0.43-0.85,0.92-0.85,1.45c0,0.79,1.01,1.19,3.04,1.19h3.43
		c2.22,0,3.91,0.48,5.07,1.43c1.16,0.95,1.74,2.35,1.74,4.19c0,2.36-0.98,4.19-2.95,5.49c-1.97,1.3-4.8,1.95-8.48,1.95
		c-2.82,0-4.97-0.49-6.46-1.47c-1.49-0.98-2.23-2.36-2.23-4.13c0-1.22,0.38-2.23,1.14-3.05s1.87-1.4,3.34-1.75
		c-0.57-0.24-1.06-0.64-1.48-1.18c-0.42-0.55-0.63-1.13-0.63-1.74c0-0.77,0.22-1.41,0.67-1.92c0.45-0.51,1.09-1.01,1.93-1.51
		c-1.06-0.46-1.9-1.19-2.52-2.2c-0.62-1.01-0.93-2.2-0.93-3.58c0-2.2,0.72-3.91,2.15-5.11c1.43-1.2,3.48-1.81,6.14-1.81
		c0.57,0,1.24,0.05,2.01,0.15c0.78,0.1,1.27,0.18,1.49,0.23H77.49z M61.9,39.55c0,0.76,0.36,1.35,1.09,1.79
		c0.73,0.43,1.75,0.65,3.06,0.65c1.98,0,3.52-0.27,4.64-0.81s1.68-1.28,1.68-2.22c0-0.76-0.33-1.28-0.99-1.57
		c-0.66-0.29-1.69-0.43-3.07-0.43h-2.85c-1.01,0-1.86,0.24-2.54,0.71C62.24,38.14,61.9,38.77,61.9,39.55z M63.9,23.11
		c0,1.1,0.25,1.96,0.75,2.6c0.5,0.64,1.26,0.96,2.29,0.96c1.04,0,1.79-0.32,2.28-0.96c0.48-0.64,0.72-1.51,0.72-2.6
		c0-2.43-1-3.65-3-3.65C64.91,19.46,63.9,20.68,63.9,23.11z"/>
	<path fill="#388F43" d="M98.39,16.5v2.8l-3.16,0.81c0.58,0.9,0.87,1.92,0.87,3.04c0,2.17-0.76,3.86-2.27,5.07
		c-1.51,1.21-3.61,1.82-6.3,1.82l-0.99-0.05l-0.81-0.09c-0.57,0.43-0.85,0.92-0.85,1.45c0,0.79,1.01,1.19,3.04,1.19h3.43
		c2.22,0,3.91,0.48,5.07,1.43c1.16,0.95,1.74,2.35,1.74,4.19c0,2.36-0.98,4.19-2.95,5.49c-1.97,1.3-4.8,1.95-8.48,1.95
		c-2.82,0-4.97-0.49-6.46-1.47c-1.49-0.98-2.23-2.36-2.23-4.13c0-1.22,0.38-2.23,1.14-3.05s1.87-1.4,3.34-1.75
		c-0.57-0.24-1.06-0.64-1.48-1.18c-0.42-0.55-0.63-1.13-0.63-1.74c0-0.77,0.22-1.41,0.67-1.92c0.45-0.51,1.09-1.01,1.93-1.51
		c-1.06-0.46-1.9-1.19-2.52-2.2c-0.62-1.01-0.93-2.2-0.93-3.58c0-2.2,0.72-3.91,2.15-5.11c1.43-1.2,3.48-1.81,6.14-1.81
		c0.57,0,1.24,0.05,2.01,0.15c0.78,0.1,1.27,0.18,1.49,0.23H98.39z M82.8,39.55c0,0.76,0.36,1.35,1.09,1.79
		c0.73,0.43,1.75,0.65,3.06,0.65c1.98,0,3.52-0.27,4.64-0.81s1.68-1.28,1.68-2.22c0-0.76-0.33-1.28-0.99-1.57
		c-0.66-0.29-1.69-0.43-3.07-0.43h-2.85c-1.01,0-1.86,0.24-2.54,0.71C83.14,38.14,82.8,38.77,82.8,39.55z M84.8,23.11
		c0,1.1,0.25,1.96,0.75,2.6c0.5,0.64,1.26,0.96,2.29,0.96c1.04,0,1.79-0.32,2.28-0.96c0.48-0.64,0.72-1.51,0.72-2.6
		c0-2.43-1-3.65-3-3.65C85.82,19.46,84.8,20.68,84.8,23.11z"/>
	<path fill="#388F43" d="M110.86,37.06c-3.25,0-5.79-0.9-7.62-2.69c-1.83-1.79-2.75-4.34-2.75-7.62c0-3.38,0.85-6,2.54-7.85
		c1.69-1.85,4.03-2.77,7.02-2.77c2.85,0,5.08,0.81,6.67,2.44s2.38,3.87,2.38,6.74v2.67h-13.03c0.06,1.57,0.52,2.79,1.39,3.67
		c0.87,0.88,2.08,1.32,3.65,1.32c1.22,0,2.37-0.13,3.45-0.38s2.22-0.66,3.4-1.21v4.26c-0.96,0.48-1.99,0.84-3.09,1.07
		C113.77,36.94,112.43,37.06,110.86,37.06z M110.08,20.04c-1.17,0-2.08,0.37-2.75,1.11c-0.66,0.74-1.04,1.79-1.14,3.15h7.73
		c-0.02-1.36-0.38-2.41-1.07-3.15C112.17,20.41,111.25,20.04,110.08,20.04z"/>
	<path fill="#388F43" d="M134.85,16.12c0.75,0,1.37,0.05,1.86,0.16l-0.42,5.17c-0.45-0.12-0.99-0.18-1.63-0.18
		c-1.76,0-3.13,0.45-4.11,1.35c-0.98,0.9-1.47,2.17-1.47,3.79V36.7h-5.51V16.5h4.17l0.81,3.4h0.27c0.63-1.13,1.47-2.04,2.54-2.74
		C132.44,16.47,133.59,16.12,134.85,16.12z"/>
	<path fill="#A4A3A3" d="M139.6,34.11c0-1.01,0.27-1.78,0.81-2.29c0.54-0.52,1.33-0.78,2.37-0.78c1,0,1.77,0.27,2.32,0.79
		c0.55,0.53,0.82,1.29,0.82,2.28c0,0.95-0.28,1.7-0.83,2.25c-0.55,0.55-1.33,0.82-2.31,0.82c-1.01,0-1.79-0.27-2.35-0.8
		C139.88,35.85,139.6,35.09,139.6,34.11z"/>
	<path fill="#A5A4A4" d="M149.3,45.59c-1.41,0-2.62-0.15-3.63-0.45V40.8c0.84,0.23,1.7,0.34,2.58,0.34c0.93,0,1.6-0.26,2.03-0.78
		c0.43-0.52,0.64-1.28,0.64-2.29V16.5h5.51v22.38c0,2.14-0.62,3.8-1.86,4.96C153.34,45.01,151.58,45.59,149.3,45.59z M150.69,11.28
		c0-1.79,1-2.69,3-2.69c2,0,3,0.9,3,2.69c0,0.86-0.25,1.52-0.75,2c-0.5,0.48-1.25,0.71-2.25,0.71
		C151.69,13.99,150.69,13.08,150.69,11.28z"/>
	<path fill="#A5A4A4" d="M176.31,30.7c0,2.07-0.72,3.65-2.16,4.73c-1.44,1.08-3.59,1.63-6.46,1.63c-1.47,0-2.72-0.1-3.76-0.3
		c-1.04-0.2-2.01-0.49-2.91-0.88v-4.55c1.02,0.48,2.18,0.89,3.46,1.21c1.28,0.33,2.41,0.49,3.39,0.49c2,0,3-0.58,3-1.73
		c0-0.43-0.13-0.79-0.4-1.06c-0.27-0.27-0.72-0.58-1.37-0.92c-0.65-0.34-1.52-0.74-2.6-1.2c-1.55-0.65-2.69-1.25-3.42-1.81
		c-0.73-0.55-1.26-1.19-1.59-1.91c-0.33-0.72-0.5-1.6-0.5-2.65c0-1.79,0.7-3.18,2.09-4.16c1.39-0.98,3.36-1.47,5.92-1.47
		c2.43,0,4.8,0.53,7.1,1.59l-1.66,3.97c-1.01-0.43-1.96-0.79-2.84-1.07c-0.88-0.28-1.78-0.42-2.69-0.42c-1.63,0-2.44,0.44-2.44,1.32
		c0,0.49,0.26,0.92,0.79,1.28c0.52,0.36,1.67,0.9,3.44,1.61c1.58,0.64,2.73,1.23,3.47,1.79c0.73,0.55,1.28,1.19,1.63,1.92
		C176.14,28.84,176.31,29.7,176.31,30.7z"/>
</g>
</svg>
